# xmcd
#
# Track frame offsets: 
#        150
#        20288
#        39238
#        56990
#        71510
#        95293
#        113080
#        132148
#        149728
#        172073
#
# Disc length: 2382 seconds
#
# Revision: 2
# Processed by: cddbd v1.5.2PL0 Copyright (c) Steve Scherf et al.
# Submitted via: ExactAudioCopy v1.0b6
#
DISCID=8b094c0a
DTITLE=浜田麻里 - ROMANTIC NIGHT
DYEAR=1983
DGENRE=J-Metal
TTITLE0=DON'T CHANGE YOUR MIND
TTITLE1=VIOLENCE FIRE
TTITLE2=FROM LONG AGO
TTITLE3=XANADU
TTITLE4=LOST MY HEART
TTITLE5=ROMANTIC NIGHT
TTITLE6=SHADOW
TTITLE7=CAN'T STOP THE ROCK'N ROLL
TTITLE8=JUMPING HIGH
TTITLE9=SO LONG
EXTD=YEAR: 1983
EXTT0=
EXTT1=
EXTT2=
EXTT3=
EXTT4=
EXTT5=
EXTT6=
EXTT7=
EXTT8=
EXTT9=
PLAYORDER=
